<svg viewBox="0 0 24 24" xmlns="http://www.w3.org/2000/svg" xml:space="preserve"><path d="M9.5 20C4.42 20 1 16.99 1 12.5 1 9.04 3.1 1 22.5 1a.5.5 0 0 1 .35.85A16.93 16.93 0 0 0 18 10.61C17.27 13.89 15.92 20 9.5 20ZM21.32 2.01C3.92 2.31 2 9.41 2 12.5 2 16.39 5.01 19 9.5 19c5.18 0 6.6-4.44 7.51-8.6.88-4 2.66-6.57 4.31-8.39Z" style="fill:#48ba80;"/><path d="M1.5 23a.5.5 0 0 1-.5-.5C1 19.53 6.16 9.99 14.28 6.05a.5.5 0 0 1 .72.45c0 .2-.1.37-.28.45C6.52 10.93 2 20.16 2 22.5a.5.5 0 0 1-.5.5Z" style="fill:#48ba80;"/></svg>